<?xml version="1.0" encoding="utf-8"?>
<!-- Generator: Adobe Illustrator 24.3.0, SVG Export Plug-In . SVG Version: 6.00 Build 0)  -->
<svg version="1.1" id="Слой_1" xmlns="http://www.w3.org/2000/svg" xmlns:xlink="http://www.w3.org/1999/xlink" x="0px" y="0px"
	 viewBox="0 0 1000 1000" style="enable-background:new 0 0 1000 1000;" xml:space="preserve">
<style type="text/css">
	.st0{fill:#ED3736;stroke:#8E4A47;stroke-width:5;stroke-miterlimit:10;}
	.st1{fill:#008213;stroke:#375A44;stroke-width:5;stroke-miterlimit:10;}
	.st2{fill:#533335;stroke:#5B2324;stroke-miterlimit:10;}
</style>
<path class="st0" d="M476.4,294.9c-59.1,9.1-78-47.1-157.4-46.6c-12.1,0.1-57.9,0.3-95.7,30.2c-56.8,44.8-56.7,125.5-56.7,173.8
	c0.1,73,23.8,126.9,36.5,154.9C218,640,241.5,690.5,295,735.6c53.9,45.5,108.7,60.7,128.4,65.5c79.8,19.2,143.7,0.8,158.7-3.8
	c15.1-4.6,72.2-23.6,124.7-76.8c66.8-67.8,81.9-146.5,88.2-181.3c4.3-24.3,13.1-76.6-2.5-141c-10.3-42.4-24.1-99.1-76.8-137.3
	c-8.3-6-64.3-45.3-128.4-31.5C527.2,242.3,527.8,287,476.4,294.9z"/>
<path class="st1" d="M463.2,354.3c-30.8,7.3-57.8-5.1-85.6-18.5c-15.8-7.6-39.5-19-63.8-42.8c-18.7-18.2-40.5-39.6-45.7-72.8
	c-1.1-7.1-6.9-44.5,13.8-59.8c16.5-12.2,40.8-3.8,68,5.9c29.8,10.6,50.3,25.6,71.4,41.1c22.5,16.6,33.8,25,45.3,39.5
	c16.9,21.2,43.9,66.6,26.9,91.5C486.2,348.8,473.9,351.8,463.2,354.3z"/>
<path class="st2" d="M467.8,353.9c-30.8-15.8-10.6-105-6.1-125c11.9-52.7,31.7-77.4,42-88.2c13.4-13.9,26.3-20.6,36.5-25.8
	c20.3-10.4,26.7-8,29-6.9c8.1,4,11.9,15.7,11.5,25.2c-1,23.9-28.3,28.8-50.5,60.5c-16.9,24.1-20.6,49-22.2,60.4
	c-7.1,48.5,14.4,72.5-1.7,90.7C497.1,355,479.3,359.8,467.8,353.9z"/>
</svg>
