<?xml version="1.0" encoding="utf-8"?>
<!-- Generator: Adobe Illustrator 24.3.0, SVG Export Plug-In . SVG Version: 6.00 Build 0)  -->
<svg version="1.1" id="Слой_1" xmlns="http://www.w3.org/2000/svg" xmlns:xlink="http://www.w3.org/1999/xlink" x="0px" y="0px"
	 viewBox="0 0 1000 1000" style="enable-background:new 0 0 1000 1000;" xml:space="preserve">
<style type="text/css">
	.st0{fill:#370B00;}
	.st1{fill:#EDEDED;}
</style>
<rect x="181.1" y="130.6" class="st0" width="571" height="15.6"/>
<path class="st1" d="M752,146.2c-1,4-2.5,9-5.2,14.3c-4,8-8.9,13.6-12.7,17.3c16.4-5.1,35.4-12.7,55.5-24.2
	c9.4-5.4,17.8-10.9,25.3-16.4c-11-6.8-23-13.6-36-20.3c-15.1-7.8-29.7-14.5-43.4-20.3c3.8,5.1,8.1,11.8,11.7,20.3
	c2.1,5,3.6,9.7,4.7,13.9"/>
<path class="st1" d="M269.6,130.6c-4-6.8-10.7-16.5-21.4-25.4c-14.5-12.1-29.3-17-37.8-19.1c-13.7-2.3-29.3-4.1-46.5-4.6
	c-22.9-0.7-43.2,1.1-60.3,3.6c8.8,11.6,17.6,16.5,23.8,18.8c11.5,4.3,19,1.6,32,6.8c8.9,3.5,15.1,8.7,18.9,12.2
	c0.7,1.7,1.3,3.8,1.8,6.2c0.4,1.9,0.5,3.7,0.6,5.2c5.7,0.4,11.4,0.7,17.1,1.1l0-5.4L269.6,130.6z"/>
<path class="st1" d="M269.4,146.2c-4.1,6.8-10.9,16.4-21.7,25.2c-14.6,12-29.4,16.8-37.9,18.8c-13.7,2.2-29.3,3.8-46.5,4.2
	c-22.9,0.5-43.2-1.5-60.3-4.2c8.9-11.6,17.7-16.3,23.9-18.6c11.5-4.2,19-1.4,32-6.5c8.9-3.5,15.2-8.6,19-12.1c0.6-1.4,1.2-3,1.7-4.8
	c0.6-2.1,0.9-4,1.1-5.6c5.6-0.6,11.1-1.3,16.7-1.9l0,5.4L269.4,146.2z"/>
<path class="st1" d="M180.8,142.7c0.1-1.3,0.1-2.7,0.1-4.2c0-1.5-0.2-2.9-0.3-4.2c5.7,0.4,11.4,0.7,17.1,1.1l-0.2,5.4
	C191.9,141.4,186.4,142,180.8,142.7z"/>
</svg>
