<?xml version="1.0" encoding="utf-8"?>
<!-- Generator: Adobe Illustrator 24.3.0, SVG Export Plug-In . SVG Version: 6.00 Build 0)  -->
<svg version="1.1" id="Слой_1" xmlns="http://www.w3.org/2000/svg" xmlns:xlink="http://www.w3.org/1999/xlink" x="0px" y="0px"
	 viewBox="0 0 1000 500" style="enable-background:new 0 0 1000 500;" xml:space="preserve">
<style type="text/css">
	.st0{fill:#FFFFFF;stroke:#C7ECFC;stroke-width:3;stroke-miterlimit:10;}
	.st1{opacity:0.6;fill:#C7ECFC;stroke:#C7ECFC;stroke-width:3;stroke-miterlimit:10;enable-background:new    ;}
</style>
<path class="st0" d="M345.5,268.3c-15.9,9.3-34.2,13.8-52.5,12.6c-10.2-0.6-20.4-3.3-30-7.2c-17.1-6.3-30.3-20.7-35.1-38.1
	c-19.8,4.8-40.2-1.5-54-16.5c-9-10.5-13.5-24-13.2-37.5c1.5-14.7,6.9-29.1,15.3-41.4c12.3-17.4,30-30.3,50.7-36.3
	c2.4-9.3,11.4-39,40.2-59.1c11.4-7.8,24-13.2,37.5-15.6c34.2-9,69.3,11.4,78.6,45.6c0.6,2.7,1.2,5.1,1.5,7.8
	c16.8-21.6,42.3-34.5,69.9-35.1c20.4,6.3,36.3,22.5,42.3,42.6c12.3-6,26.4-6.9,39.6-2.4c9,3.3,16.8,9,22.5,16.5
	c4.5,6.3,7.5,13.2,9,20.7c1.8,8.4,1.5,17.4-0.6,25.8c16.8-0.6,32.7,6.3,43.8,19.2c2.4,6.6,2.4,14.1,0,20.7c-1.8,4.8-5.1,9-9,12.3
	c6,0,11.4,2.7,15.3,7.2c4.8,6.6,4.8,15.6,0,22.5c-19.2,17.1-43.2,27.9-68.4,30.9c-6.6,0-13.2-0.9-19.5-3c-5.7-1.8-10.8-4.5-15.6-7.8
	c-4.5,8.1-11.1,15-19.2,20.1c-7.2,4.5-15,7.2-23.4,8.1c-17.4-0.9-33.3-10.2-42.6-25.2c-6.6,18.6-25.2,30.3-45,27.9
	C369,285.4,354.2,279.7,345.5,268.3L345.5,268.3z"/>
<path class="st1" d="M608.1,170.8c2.4,6.6,2.4,14.1,0,20.7c-1.8,4.8-5.1,9-9,12.3c6,0,11.4,2.7,15.3,7.2c4.8,6.6,4.8,15.6,0,22.5
	c-19.2,17.1-43.2,27.9-68.7,30.9c-6.6,0-13.2-0.9-19.5-3c-5.7-1.8-10.8-4.5-15.9-7.8c-8.7,15.6-24.6,26.1-42.3,28.2
	c-17.4-0.9-33.3-10.2-42.6-25.2c-6.6,18.6-25.2,30.3-45,27.9c-14.4,2.4-28.8-3.3-37.5-14.7c-15.9,9.3-34.2,13.8-52.5,12.6
	c-10.2-0.6-20.4-3-30-7.2c-17.1-6.3-30.3-20.4-35.1-38.1c-19.5,4.8-40.2-1.5-54-16.5c-9-10.5-13.5-24-13.2-37.5
	c31.8-10.2,54.3-7.2,69-2.7c29.4,9.3,37.5,28.5,59.4,26.4c22.8-2.4,24.9-24,48.9-25.8c20.7-1.5,24.9,15.6,50.4,15.6
	c16.8,0,19.8-7.5,39.3-9.3c22.5-2.4,39.6,5.4,46.8,8.1C493.5,202.9,532.5,203.5,608.1,170.8z"/>
</svg>
