<?xml version="1.0" encoding="utf-8"?>
<!-- Generator: Adobe Illustrator 24.3.0, SVG Export Plug-In . SVG Version: 6.00 Build 0)  -->
<svg version="1.1" id="Слой_1" xmlns="http://www.w3.org/2000/svg" xmlns:xlink="http://www.w3.org/1999/xlink" x="0px" y="0px"
	 viewBox="0 0 1000 500" style="enable-background:new 0 0 1000 500;" xml:space="preserve">
<style type="text/css">
	.st0{fill:#FFFFFF;stroke:#C7ECFC;stroke-width:3;stroke-miterlimit:10;}
	.st1{opacity:0.6;fill:#C7ECFC;stroke:#C7ECFC;stroke-width:3;stroke-miterlimit:10;enable-background:new    ;}
</style>
<path class="st0" d="M250.2,329.5c5.7,1.2,11,2.9,16.3,5.7c9.8,24.5,30.6,42.4,56.3,48.5c33.8,8.2,69.7,0.8,97.8-20
	c9.4,13,21.2,23.6,35.1,31.4c19.2,10.6,40.8,15.1,62.8,13c25.3-1.2,49.7-11.4,68.1-28.5c24.5,6.9,50.6,5.3,74.2-4.9
	c16.3-8.6,27.7-24.1,31.4-42c11.8-1.6,22.8-8.2,30.6-17.5c5.7-7.7,9-17.1,9.4-26.9c-1.6-15.5-13.5-28.1-28.9-31
	c6.1-10.2,8.6-22,6.9-33.8c-4.1-17.1-14.3-32.2-28.5-42.4c-12.6-6.9-28.1-8.6-42-4.1c3.3-30.2-5.3-59.9-23.6-84
	c-15.5-19.6-36.3-33.4-60.3-40.4c-42.8-25.3-95.4-23.2-132.9,4.9c-44,33.4-44.8,87.7-44.8,93.8c-27.3-20.8-66-15.5-86.8,11.8
	c-0.8,0.8-1.6,2-2,3.3c-5.7,8.6-10.2,17.9-12.2,28.1c-15.9-5.3-33.8-1.6-46.1,9.8c-9.4,12.6-12.6,28.5-8.6,44
	c-11.4,4.1-20.8,11.8-27.3,22c-5.3,8.6-8.2,18.8-7.7,28.9c8.2,21.2,17.9,28.1,25.7,30.2C222.9,331.9,231.8,325.8,250.2,329.5z"/>
<path class="st0" d="M743.9,188.8"/>
<path class="st1" d="M221.6,247.9c-11.4,4.1-20.8,11.8-27.3,22c-5.3,8.6-8.2,18.8-7.7,28.9c8.2,21.2,17.9,28.1,25.7,30.2
	c11,2.9,20-3.3,37.9,0c5.7,1.2,11,2.9,16.3,5.7c9.8,24.5,30.6,42.4,56.3,48.5c33.8,8.2,69.7,0.8,97.8-20c9.4,13,21.2,23.6,35.1,31.4
	c19.2,10.6,40.8,15.1,62.8,13c25.3-1.2,49.7-11.4,68.1-28.5c24.5,6.9,50.6,5.3,74.2-4.9c16.3-8.6,27.7-24.1,31.4-42
	c11.8-1.6,22.8-8.2,30.6-17.5c5.7-7.7,9-17.1,9.4-26.9c-1.6-15.5-13.5-28.1-28.9-31c-9.8,9-22,15.1-35.5,17.5
	c-21.6,3.7-30.6-6.9-53.4-9.8c-34.2-4.1-41.6,16.3-77.5,17.9s-35.5-17.5-74.6-22c-58.3-6.5-78.3,34.2-123.1,18.8
	c-23.2-7.7-24.5-21.2-53.8-29.8C264,244.3,242.4,243.5,221.6,247.9z"/>
</svg>
