<?xml version="1.0" encoding="utf-8"?>
<!-- Generator: Adobe Illustrator 24.3.0, SVG Export Plug-In . SVG Version: 6.00 Build 0)  -->
<svg version="1.1" id="Слой_1" xmlns="http://www.w3.org/2000/svg" xmlns:xlink="http://www.w3.org/1999/xlink" x="0px" y="0px"
	 viewBox="0 0 1000 1000" style="enable-background:new 0 0 1000 1000;" xml:space="preserve">
<style type="text/css">
	.st0{fill:#B76333;stroke:#783F33;stroke-width:5;stroke-miterlimit:10;}
	.st1{fill:#FFFFFF;}
</style>
<path class="st0" d="M771.8,534.5c10.3-106.8-10.6-185.1-26.9-229.9C707.2,201,626.2,89.4,596.3,100.8c-7.1,2.7-9.6,11.8-11.2,17.5
	c-8.9,32,24.9,55.3,64.1,118.2c26.7,42.9,41.2,80.5,47.6,98.4c12.4,35,19.5,55.1,22.6,85c4.7,44.5-3.5,73.2,16.4,93.4
	c9.1,9.3,20.4,12.9,27.7,14.5"/>
<path class="st0" d="M343.4,401.7"/>
<path class="st0" d="M768.5,397.7c14.5,105.1-3.6,183-18.3,227.6c-34.6,105.3-113.5,218-143.7,207.3c-7.2-2.5-9.9-11.6-11.6-17.3
	c-9.6-31.8,23.6-55.9,61.2-119.7c25.7-43.5,39.3-81.5,45.2-99.5c13.1-40.1,20.6-85.5,20.6-85.5c0.9-6.4,1.5-13.7,1.5-21.8
	c0-4.6-0.3-9-0.7-13"/>
<path class="st0" d="M723.4,491.9c-0.3-4-0.5-7.3-0.6-9.4c-0.2-6,0-8.7-0.5-13.6c-0.3-3.1-0.8-5.6-1.1-7.1"/>
<path class="st1" d="M579.2,141c-64.5,43.3-134.9,95.5-207.5,158.3C301,360.4,240.6,420.8,189.4,477
	c59.3,60.2,132.2,125.9,220.4,190.4c63.6,46.5,125,85,181.8,116.9c1.7-4.1,3.3-8.3,5-12.4C541.2,740.7,481,702.8,418.8,657
	c-83.7-61.6-153.1-124.3-209.5-181.6c50.6-52.7,108.4-108.3,174-164.5c70.2-60.1,138.3-111.5,201.9-155.4c-1.2-2-2.4-4.4-3.5-7.1
	C580.7,145.7,579.8,143.2,579.2,141z"/>
</svg>
