<?xml version="1.0" encoding="utf-8"?>
<!-- Generator: Adobe Illustrator 24.3.0, SVG Export Plug-In . SVG Version: 6.00 Build 0)  -->
<svg version="1.1" id="Слой_1" xmlns="http://www.w3.org/2000/svg" xmlns:xlink="http://www.w3.org/1999/xlink" x="0px" y="0px"
	 viewBox="0 0 1000 500" style="enable-background:new 0 0 1000 500;" xml:space="preserve">
<style type="text/css">
	.st0{fill:#FFFFFF;stroke:#C7ECFC;stroke-width:3;stroke-miterlimit:10;}
	.st1{opacity:0.6;fill:#C7ECFC;stroke:#C7ECFC;stroke-width:3;stroke-miterlimit:10;enable-background:new    ;}
</style>
<path class="st0" d="M674.1,314.6c-11,18.3-26,34.1-43.4,45.8c-4.5,2.8-8.9,5.7-13.8,8.1c-31.6,15.4-63.3,11.4-82.8,8.1
	c-24.7-3.7-43.8-6.5-61.7-22.3c-11-10.1-19.5-22.7-24.3-36.9c-9.7,8.5-21.5,15.4-33.7,19.9c-13.8,4.9-28.8,6.9-43.4,6.1
	c-7.3-3.2-14.2-7.3-20.7-12.2c-19.5-15-34.1-35.3-42.6-58.8c-11,8.1-23.5,13.8-36.9,16.6c-10.1,2-20.7,0.8-30.4-3.2
	c-8.9-2.4-17-8.1-23.1-15.8c-3.2-4.5-5.7-10.1-6.5-15.4c-1.6-13,2.8-26,12.6-34.5c12.2-10.5,31.2-12.2,48.7-4.9
	c-4.1-34.9,18.7-67.3,53.1-75.5c22.7-5.7,46.7,1.2,63.3,17.4C396.6,94.7,449.4,48,511.9,47.6c15.4,0,77.1-6.9,97.8,25.6
	s15,59.6,15,59.6c-0.4,2-1.6,6.9,0.4,8.5c5.7,4.5,23.9-18.7,51.5-23.1c10.1-1.6,20.3-0.4,30,2.8c15.8,5.3,21.1,21.5,22.7,25.2
	c4.5,12.2,4.1,25.2-1.2,36.9c8.5-4.9,18.3-6.5,28-5.7c13.8,2,25.6,10.1,32.9,21.9c1.2,8.1,0,16.2-2.8,23.9
	c-4.5,11-13,20.3-23.9,25.6c15.8,13.8,17.9,37.7,4.1,53.6l-0.4,0.4c-10.5,8.5-22.7,14.2-36.1,17
	C710.6,324.3,691.6,322.3,674.1,314.6z"/>
<path class="st0" d="M401.5,170.1"/>
<path class="st1" d="M784.5,216.4c0.8,2.4,1.2,4.9,0.8,7.3c-0.8,16.2-22.7,25.2-23.9,25.6c15.8,13.8,17.9,37.7,4.1,53.6l-0.4,0.4
	c-10.5,8.5-22.7,14.2-36.1,17c-18.7,4.1-38.1,2-55.6-5.7c-11,18.3-26,34.1-43.4,45.8c-4.5,2.8-8.9,5.7-13.8,8.1
	c-31.6,15.4-63.3,11.4-82.8,8.1c-24.7-3.7-43.8-6.5-61.7-22.3c-11-10.1-19.5-22.7-24.3-36.9c-9.7,8.5-21.5,15.4-33.7,19.9
	c-13.8,4.9-28.8,6.9-43.4,6.1c-7.3-3.2-14.2-7.3-20.7-12.2c-19.5-15-34.1-35.3-42.6-58.8c-11,8.1-23.5,13.8-36.9,16.6
	c-10.1,2-20.7,0.8-30.4-3.2c-8.9-2.4-17-8.1-23.1-15.8c-3.2-4.5-5.7-10.1-6.5-15.4c-1.6-13,2.8-26,12.6-34.5
	c12.2-10.5,31.2-12.2,48.7-4.9c-1.2-17.4-0.8-39.8,8.9-44.2c11-4.5,22.3,16.6,47.5,30.4c42.2,22.3,67.3-6.1,127.4,6.5
	c46.7,10.1,38.1,29.2,81.5,36.1c50.3,8.1,63.3-17.4,121.3-8.1c29.2,4.9,37.7,13,62.5,10.5C749.2,243.2,770.7,228.5,784.5,216.4z"/>
</svg>
