<?xml version="1.0" encoding="utf-8"?>
<!-- Generator: Adobe Illustrator 24.3.0, SVG Export Plug-In . SVG Version: 6.00 Build 0)  -->
<svg version="1.1" id="Слой_1" xmlns="http://www.w3.org/2000/svg" xmlns:xlink="http://www.w3.org/1999/xlink" x="0px" y="0px"
	 viewBox="0 0 1000 500" style="enable-background:new 0 0 1000 500;" xml:space="preserve">
<style type="text/css">
	.st0{fill:#92BA31;}
	.st1{fill:#44A329;}
</style>
<path class="st0" d="M24.8,256.8"/>
<path class="st1" d="M34.4,272.1c0.5-3.4,0.2-6.7-0.9-10c-1.7-4.8-5.2-8.9-9.6-11.5c7.4,0.5,14.1,3.8,19.2,8.9
	c0-3.1,0.7-6.4,2.1-9.1c2.7-5.8,7.6-10.5,13.4-13.1c-0.3,0.3-8.2,7.4-6,15.8c0.5,2.1,1.5,3.9,2.9,5.5c1.7-2.2,3.9-4.1,6.4-5.5
	c8.8-4.8,18.2-1.4,19.7-0.7c-7.2-1.5-14.1,3.1-15.6,10.3c-0.7,3.1-0.2,6.5,1.5,9.3H34.4z"/>
<path class="st1" d="M72.7,273.3c0.5-3.3,0.2-6.7-0.9-10c-1.7-4.8-5.2-8.9-9.6-11.5c3.9,0.3,7.9,1.4,11.5,3.3
	c2.9,1.5,5.5,3.4,7.7,5.7c0-3.1,0.7-6.4,2.1-9.1c2.7-5.8,7.6-10.5,13.4-13.1c-0.3,0.3-8.2,7.4-6,15.8c0.5,2.1,1.5,3.9,2.9,5.5
	c1.7-2.2,3.9-4.1,6.4-5.5c8.8-4.8,18.2-1.4,19.7-0.7c-7.2-1.5-14.1,3.1-15.6,10.3c-0.7,3.1-0.2,6.5,1.5,9.3H72.7z"/>
<path class="st1" d="M111.2,272.6c0.5-3.4,0.2-6.7-0.9-10c-1.7-4.8-5.2-8.9-9.6-11.5c3.9,0.3,7.9,1.4,11.5,3.3
	c2.9,1.5,5.5,3.4,7.7,5.7c0-3.1,0.7-6.4,2.1-9.1c2.7-5.8,7.6-10.5,13.4-13.1c-0.3,0.3-8.2,7.4-6,15.8c0.5,2.1,1.5,3.9,2.9,5.5
	c1.7-2.2,3.9-4.1,6.4-5.5c8.8-4.8,18.2-1.4,19.7-0.7c-7.2-1.5-14.1,3.1-15.6,10.3c-0.7,3.1-0.2,6.5,1.5,9.3H111.2z"/>
<path class="st1" d="M149.3,273.8c0.5-3.3,0.2-6.7-0.9-10c-1.7-4.8-5.2-8.9-9.6-11.5c7.4,0.5,14.1,3.8,19.2,8.9
	c0-3.3,0.7-6.4,2.1-9.3c2.7-5.8,7.6-10.5,13.4-13.1c-0.3,0.3-8.2,7.4-6,15.8c0.5,2.1,1.5,3.9,2.9,5.5c1.7-2.2,3.9-4.1,6.4-5.5
	c8.8-4.8,18.2-1.4,19.7-0.7c-7.2-1.5-14.1,3.1-15.6,10.1c-0.7,3.3-0.2,6.5,1.5,9.4h-33.1V273.8z"/>
<path class="st1" d="M183.1,273.3c0.5-3.4,0.2-6.7-0.9-10c-1.7-4.8-5.2-8.9-9.6-11.5c3.9,0.3,7.9,1.4,11.5,3.3
	c2.9,1.5,5.5,3.4,7.7,5.7c0-3.1,0.7-6.4,2.1-9.3c2.7-5.8,7.6-10.5,13.4-13.1c-0.3,0.3-8.2,7.4-6,15.8c0.5,2.1,1.5,3.9,2.9,5.5
	c1.7-2.2,3.9-4.1,6.4-5.5c8.8-4.8,18.2-1.4,19.7-0.7c-7.2-1.5-14.1,3.1-15.6,10.3c-0.7,3.1-0.2,6.5,1.5,9.3h-33.1V273.3z"/>
<path class="st1" d="M221.4,274.5c0.5-3.3,0.2-6.7-0.9-10c-1.7-4.8-5.2-8.9-9.6-11.5c3.9,0.3,7.9,1.4,11.5,3.3
	c2.9,1.5,5.5,3.4,7.7,5.7c0-3.1,0.7-6.4,2.1-9.1c2.7-5.8,7.6-10.5,13.4-13.1c-0.3,0.3-8.2,7.4-6,15.8c0.5,2.1,1.5,3.9,2.9,5.5
	c1.7-2.2,3.9-4.1,6.4-5.5c8.8-4.8,18.2-1.4,19.7-0.7c-7.2-1.4-14.1,3.3-15.5,10.3c-0.7,3.1,0,6.4,1.5,9.1h-33.3V274.5z"/>
<path class="st1" d="M256.8,271.4c0.5-3.3,0.2-6.7-0.9-10c-1.7-4.8-5.2-8.9-9.6-11.5c3.9,0.3,7.9,1.4,11.5,3.3
	c2.9,1.5,5.5,3.4,7.7,5.7c0-3.1,0.7-6.4,2.1-9.1c2.7-5.8,7.6-10.5,13.4-13.1c-0.3,0.3-8.2,7.4-6,15.8c0.5,2.1,1.5,3.9,2.9,5.5
	c1.7-2.2,3.9-4.1,6.4-5.5c8.8-4.8,18.2-1.4,19.7-0.7c-7.2-1.5-14.1,3.1-15.6,10.3c-0.7,3.1-0.2,6.5,1.5,9.3H256.8z"/>
<path class="st1" d="M294.9,272.8c0.5-3.4,0.2-6.7-0.9-10c-1.7-4.8-5.2-8.9-9.6-11.5c3.9,0.3,7.9,1.4,11.5,3.3
	c2.9,1.5,5.5,3.4,7.7,5.7c0-3.1,0.7-6.4,2.1-9.1c2.7-5.8,7.6-10.5,13.4-13.1c-0.3,0.3-8.2,7.4-6,15.8c0.5,2.1,1.5,3.9,2.9,5.5
	c1.7-2.2,3.9-4.1,6.4-5.5c8.8-4.8,18.2-1.4,19.7-0.7c-7.2-1.5-14.1,3.1-15.6,10.3c-0.7,3.1-0.2,6.5,1.5,9.3H294.9z"/>
<path class="st1" d="M334.4,271.9c0.5-3.3,0.2-6.7-0.9-10c-1.7-4.8-5.2-8.9-9.6-11.5c3.9,0.3,7.9,1.4,11.5,3.3
	c2.9,1.5,5.5,3.4,7.7,5.7c0-3.1,0.7-6.4,2.1-9.1c2.7-5.8,7.6-10.5,13.4-13.1c-0.3,0.3-8.2,7.4-6,15.8c0.5,2.1,1.5,3.9,2.9,5.5
	c1.7-2.2,3.9-4.1,6.4-5.5c8.8-4.8,18.2-1.4,19.7-0.7c-7.2-1.5-14.1,3.1-15.6,10.3c-0.7,3.1-0.2,6.5,1.5,9.3H334.4z"/>
<path class="st1" d="M372.7,273.3c0.5-3.4,0.2-6.7-0.9-10c-1.7-4.8-5.2-8.9-9.6-11.5c3.9,0.3,7.9,1.4,11.5,3.3
	c2.9,1.5,5.5,3.4,7.7,5.7c0-3.1,0.7-6.4,2.1-9.3c2.7-5.8,7.6-10.5,13.4-13.1c-0.3,0.3-8.2,7.4-6,15.8c0.5,2.1,1.5,3.9,2.9,5.5
	c1.7-2.2,3.9-4.1,6.4-5.5c8.8-4.8,18.2-1.4,19.7-0.7c-7.2-1.5-14.1,3.1-15.6,10.3c-0.7,3.1-0.2,6.5,1.5,9.3h-33.1V273.3z"/>
<path class="st1" d="M413.6,273.6c0.5-3.3,0.2-6.7-0.9-10c-1.7-4.8-5.2-8.9-9.6-11.5c7.2,0.5,14.1,3.8,19.2,8.9
	c0-3.1,0.7-6.4,2.1-9.1c2.7-5.8,7.6-10.5,13.4-13.1c-0.3,0.3-8.2,7.4-6,15.8c0.5,2.1,1.5,3.9,2.9,5.5c1.7-2.2,3.9-4.1,6.4-5.5
	c8.8-4.8,18.2-1.4,19.7-0.7c-7.2-1.5-14.1,3.1-15.6,10.3c-0.7,3.1-0.2,6.5,1.5,9.3H413.6z"/>
<path class="st1" d="M451.9,274.9c0.5-3.4,0.2-6.7-0.9-10c-1.7-4.8-5.2-8.9-9.6-11.5c7.4,0.5,14.3,3.8,19.2,8.9
	c0-3.1,0.7-6.4,2.1-9.1c2.7-5.8,7.6-10.6,13.4-13.2c-0.3,0.3-8.2,7.4-6,15.8c0.5,2.1,1.5,3.9,2.9,5.5c1.7-2.2,3.9-4.1,6.4-5.5
	c8.8-4.8,18.2-1.4,19.7-0.7c-7.2-1.5-14.1,3.1-15.6,10.3c-0.7,3.1-0.2,6.5,1.5,9.3L451.9,274.9z"/>
<path class="st1" d="M490.3,274.2c0.5-3.3,0.2-6.7-0.9-10c-1.7-4.8-5.2-8.9-9.6-11.5c3.9,0.3,7.9,1.4,11.5,3.3
	c2.9,1.5,5.5,3.4,7.7,5.7c0-3.1,0.7-6.4,2.1-9.1c2.7-5.8,7.6-10.5,13.4-13.1c-0.3,0.3-8.2,7.4-6,15.8c0.5,2.1,1.5,3.9,2.9,5.5
	c1.7-2.2,3.9-4.1,6.4-5.5c8.8-4.8,18.2-1.4,19.7-0.7c-7.2-1.5-14.1,3.1-15.6,10.3c-0.7,3.1-0.2,6.5,1.5,9.3H490.3z"/>
<path class="st1" d="M528.5,275.4c0.5-3.4,0.2-6.7-0.9-10c-1.7-4.8-5.2-8.9-9.6-11.5c3.9,0.3,7.9,1.4,11.5,3.3
	c2.9,1.5,5.5,3.4,7.7,5.7c0-3.1,0.7-6.4,2.1-9.1c2.7-5.8,7.6-10.5,13.4-13.1c-0.3,0.3-8.2,7.4-6,15.8c0.5,2.1,1.5,3.9,2.9,5.5
	c1.7-2.2,3.9-4.1,6.4-5.5c8.8-4.8,18.2-1.4,19.7-0.7c-7.2-1.5-14.1,3.1-15.6,10.3c-0.7,3.1-0.2,6.5,1.5,9.3H528.5z"/>
<path class="st1" d="M562.3,274.7c0.5-3.4,0.2-6.7-0.9-10c-1.7-4.8-5.2-8.9-9.6-11.5c3.9,0.3,7.9,1.4,11.5,3.3
	c2.9,1.5,5.5,3.4,7.7,5.7c0-3.1,0.7-6.4,2.1-9.1c2.7-5.8,7.6-10.5,13.4-13.1c-0.3,0.3-8.2,7.4-6,15.8c0.5,2.1,1.5,3.9,2.9,5.5
	c1.7-2.2,3.9-4.1,6.4-5.5c8.8-4.8,18.2-1.4,19.7-0.7c-7.2-1.5-14.1,3.1-15.6,10.3c-0.7,3.1-0.2,6.5,1.5,9.3L562.3,274.7z"/>
<path class="st1" d="M600.6,276.1c0.5-3.3,0.2-6.7-0.9-10c-1.7-4.8-5.2-8.9-9.6-11.5c7.2,0.5,14.1,3.8,19.2,8.9
	c0-3.1,0.7-6.4,2.1-9.1c2.7-5.8,7.6-10.5,13.4-13.1c-0.3,0.3-8.2,7.4-6,15.8c0.5,2.1,1.5,3.9,2.9,5.5c1.7-2.2,3.9-4.1,6.4-5.5
	c8.8-4.8,18.2-1.4,19.7-0.7c-7.2-1.5-14.1,3.1-15.6,10.3c-0.7,3.1-0.2,6.5,1.5,9.3H600.6z"/>
<path class="st1" d="M635.9,273c0.5-3.4,0.2-6.7-0.9-10c-1.7-4.8-5.2-8.9-9.6-11.5c3.9,0.3,7.9,1.4,11.5,3.3
	c2.9,1.5,5.5,3.4,7.7,5.7c0-3.1,0.7-6.4,2.1-9.1c2.7-5.8,7.6-10.5,13.4-13.1c-0.3,0.3-8.2,7.4-6,15.8c0.5,2.1,1.5,3.9,2.9,5.5
	c1.7-2.2,3.9-4.1,6.4-5.5c8.8-4.8,18.2-1.4,19.7-0.7c-7.2-1.5-14.1,3.1-15.6,10.3c-0.7,3.1-0.2,6.5,1.5,9.3H635.9z"/>
<path class="st1" d="M674.1,274.2c0.5-3.3,0.2-6.7-0.9-10c-1.7-4.8-5.2-8.9-9.6-11.5c3.9,0.3,7.9,1.4,11.5,3.3
	c2.9,1.5,5.5,3.4,7.7,5.7c0-3.1,0.7-6.4,2.1-9.1c2.7-5.8,7.6-10.5,13.4-13.1c-0.3,0.3-8.2,7.4-6,15.8c0.5,2.1,1.5,3.9,2.9,5.5
	c1.7-2.2,3.9-4.1,6.4-5.5c8.8-4.8,18.2-1.4,19.7-0.7c-7.2-1.5-14.1,3.1-15.6,10.3c-0.7,3.1-0.2,6.5,1.5,9.3H674.1z"/>
<path class="st1" d="M713.6,273.5c0.5-3.3,0.2-6.7-0.9-10c-1.7-4.8-5.2-8.9-9.6-11.5c3.9,0.3,7.9,1.4,11.5,3.3
	c2.9,1.5,5.5,3.4,7.7,5.7c0-3.1,0.7-6.4,2.1-9.1c2.7-5.8,7.6-10.5,13.4-13.1c-0.3,0.3-8.2,7.4-6,15.8c0.5,2.1,1.5,3.9,2.9,5.5
	c1.7-2.2,3.9-4.1,6.4-5.5c8.8-4.8,18.2-1.4,19.7-0.7c-7.2-1.5-14.1,3.1-15.6,10.3c-0.7,3.1-0.2,6.5,1.5,9.3H713.6z"/>
<path class="st1" d="M751.9,274.7c0.5-3.4,0.2-6.7-0.9-10c-1.7-4.8-5.2-8.9-9.6-11.5c7.4,0.5,14.1,3.8,19.2,8.9
	c0-3.1,0.7-6.4,2.1-9.1c2.7-5.8,7.6-10.5,13.4-13.1c-0.3,0.3-8.2,7.4-6,15.8c0.5,2.1,1.5,3.9,2.9,5.5c1.7-2.2,3.9-4.1,6.4-5.5
	c8.8-4.8,18.2-1.4,19.7-0.7c-7.2-1.5-14.1,3.1-15.6,10.3c-0.7,3.1-0.2,6.5,1.5,9.3C785,274.7,751.9,274.7,751.9,274.7z"/>
<path class="st1" d="M793.2,273.5c0.5-3.3,0.2-6.7-0.9-10c-1.7-4.8-5.2-8.9-9.6-11.5c7.2,0.5,14.1,3.8,19.2,8.9
	c0-3.1,0.7-6.4,2.1-9.1c2.7-5.8,7.6-10.5,13.4-13.1c-0.3,0.3-8.2,7.4-6,15.8c0.5,2.1,1.5,3.9,2.9,5.5c1.7-2.2,3.9-4.1,6.4-5.5
	c8.8-4.8,18.2-1.4,19.7-0.7c-7.2-1.5-14.1,3.1-15.6,10.3c-0.7,3.1-0.2,6.5,1.5,9.3H793.2z"/>
<path class="st1" d="M832.1,274.9c0.5-3.4,0.2-6.7-0.9-10c-1.7-4.8-5.2-8.9-9.6-11.5c7.4,0.5,14.3,3.8,19.2,8.9
	c0-3.1,0.7-6.4,2.1-9.1c2.7-5.8,7.6-10.5,13.4-13.1c-0.3,0.3-8.2,7.4-6,15.8c0.5,2.1,1.5,3.9,2.9,5.5c1.7-2.2,3.9-4.1,6.4-5.5
	c8.8-4.8,18.2-1.4,19.7-0.7c-7.2-1.5-14.1,3.1-15.6,10.3c-0.7,3.1-0.2,6.5,1.5,9.3H832.1z"/>
<path class="st1" d="M873.6,273.6c0.5-3.3,0.2-6.7-0.9-10c-1.7-4.8-5.2-8.9-9.6-11.5c7.2,0.5,14.1,3.8,19.2,8.9
	c0-3.1,0.7-6.4,2.1-9.1c2.7-5.8,7.6-10.5,13.4-13.1c-0.3,0.3-8.2,7.4-6,15.8c0.5,2.1,1.5,3.9,2.9,5.5c1.7-2.2,3.9-4.1,6.4-5.5
	c8.8-4.8,18.2-1.4,19.7-0.7c-7.2-1.5-14.1,3.1-15.6,10.3c-0.7,3.1-0.2,6.5,1.5,9.3H873.6z"/>
<path class="st1" d="M911.2,273.6c0.5-3.3,0.2-6.7-0.9-10c-1.7-4.8-5.2-8.9-9.6-11.5c7.2,0.5,14.1,3.8,19.2,8.9
	c0-3.1,0.7-6.4,2.1-9.1c2.7-5.8,7.6-10.5,13.4-13.1c-0.3,0.3-8.2,7.4-6,15.8c0.5,2.1,1.5,3.9,2.9,5.5c1.7-2.2,3.9-4.1,6.4-5.5
	c8.8-4.8,18.2-1.4,19.7-0.7c-7.2-1.5-14.1,3.1-15.6,10.3c-0.7,3.1-0.2,6.5,1.5,9.3H911.2z"/>
<path class="st1" d="M952.8,272.3c0.5-3.3,0.2-6.7-0.9-10c-1.7-4.8-5.2-8.9-9.6-11.5c7.4,0.5,14.1,3.8,19.2,8.9
	c0-3.1,0.7-6.4,2.1-9.1c2.7-5.8,7.6-10.5,13.4-13.1c-0.3,0.3-8.2,7.4-6,15.8c0.5,2.1,1.5,3.9,2.9,5.5c1.7-2.2,3.9-4.1,6.4-5.5
	c8.8-4.8,18.2-1.4,19.7-0.7c-7.2-1.5-14.1,3.1-15.6,10.3c-0.7,3.1-0.2,6.5,1.5,9.3H952.8z"/>
</svg>
